# xmcd CD database file
#
# Track frame offsets:
#	150
#	28305
#	50432
#	114437
#	140490
#	166690
#	187727
#	221377
#	232695
#	268597
#
# Disc length: 4033 seconds
#
# Revision: 1
# Processed by: cddbd v1.5.2PL0 Copyright (c) Steve Scherf et al.
# Submitted via: CDex 1.70beta2
#
DISCID=7c0fbf0a
DTITLE=Choir of New College Oxford - Higginbottom - William Croft - Select Anthems
DYEAR=1992
DGENRE=Choral
TTITLE0=O Lord God of my salvation
TTITLE1=We will rejoice in thy salvation
TTITLE2=O Lord I will praise thee
TTITLE3=Organ Voluntary in A Minor
TTITLE4=Hear my Prayer
TTITLE5=God is gone up with a merry noise
TTITLE6=I will sing unto the Lord
TTITLE7=Organ Voluntary in D
TTITLE8=We wait for thy loving kindness
TTITLE9=O Lord rebuke me not
EXTD=YEAR: 1992
EXTT0=
EXTT1=
EXTT2=
EXTT3=
EXTT4=
EXTT5=
EXTT6=
EXTT7=
EXTT8=
EXTT9=
PLAYORDER=
